<svg width="40" height="40" viewBox="0 0 40 40" fill="none" xmlns="http://www.w3.org/2000/svg">
<path d="M33.7153 2.22223L40 13.3333H32.9792L28.1736 2.22223H33.7153ZM24.8264 2.22223L29.6319 13.3333H10.3681L15.1736 2.22223H24.8264ZM6.28472 2.22223H11.8264L7.02083 13.3333H0L6.28472 2.22223ZM0 15.5556H6.99306L15.5347 33.0347C15.6389 33.25 15.3472 33.4445 15.1875 33.2639L0 15.5556ZM10.2917 15.5556H29.7083L20.1944 37.6528C20.125 37.8195 19.8819 37.8195 19.8125 37.6528L10.2917 15.5556ZM24.4653 33.0347L33.0069 15.5556H40L24.8125 33.257C24.6528 33.4445 24.3611 33.25 24.4653 33.0347Z" fill="#FD562A"/>
</svg>
