<svg width="40" height="40" viewBox="0 0 40 40" fill="none" xmlns="http://www.w3.org/2000/svg">
<path d="M28.75 0H11.25C9.17969 0 7.5 1.67969 7.5 3.75V36.25C7.5 38.3203 9.17969 40 11.25 40H28.75C30.8203 40 32.5 38.3203 32.5 36.25V3.75C32.5 1.67969 30.8203 0 28.75 0ZM20 37.5C18.6172 37.5 17.5 36.3828 17.5 35C17.5 33.6172 18.6172 32.5 20 32.5C21.3828 32.5 22.5 33.6172 22.5 35C22.5 36.3828 21.3828 37.5 20 37.5ZM28.75 29.0625C28.75 29.5781 28.3281 30 27.8125 30H12.1875C11.6719 30 11.25 29.5781 11.25 29.0625V4.6875C11.25 4.17188 11.6719 3.75 12.1875 3.75H27.8125C28.3281 3.75 28.75 4.17188 28.75 4.6875V29.0625Z" fill="#FD562A"/>
</svg>
