<svg width="45" height="45" viewBox="0 0 45 45" fill="none" xmlns="http://www.w3.org/2000/svg">
<path d="M22.4997 37.0547C20.9089 37.0547 19.5818 36.457 18.7292 36.0967C18.2546 35.8945 17.7361 36.2549 17.7712 36.7646L18.0788 41.2471C18.0964 41.5195 18.4128 41.6602 18.6326 41.4932L19.907 40.5264C20.0652 40.4033 20.3025 40.4473 20.4079 40.6143L22.2097 43.4355C22.3415 43.6465 22.6579 43.6465 22.7898 43.4355L24.5915 40.6143C24.697 40.4473 24.9343 40.4033 25.0925 40.5264L26.3669 41.4932C26.5867 41.6602 26.9031 41.5195 26.9206 41.2471L27.2283 36.7646C27.2634 36.2549 26.7449 35.8857 26.2702 36.0967C25.4089 36.457 24.0906 37.0547 22.4997 37.0547Z" fill="#FD562A"/>
<path d="M34.9542 25.7607L30.7354 21.4453C30.7354 7.55859 22.544 1.40625 22.544 1.40625C22.544 1.40625 14.2735 7.55859 14.2735 21.4453L10.0548 25.7607C9.89657 25.9189 9.82625 26.1562 9.86141 26.3848L11.4786 36.2109C11.5577 36.7119 12.1026 36.958 12.5157 36.6855L18.4132 32.6953C18.4132 32.6953 20.2325 34.4531 22.5528 34.4531C24.8731 34.4531 26.6046 32.6953 26.6046 32.6953L32.502 36.6855C32.9063 36.958 33.4513 36.7119 33.5391 36.2109L35.1651 26.376C35.1827 26.1475 35.1124 25.9189 34.9542 25.7607ZM22.544 16.875C21.0499 16.875 19.8458 15.6182 19.8458 14.0625C19.8458 12.5068 21.0587 11.25 22.544 11.25C24.0382 11.25 25.2423 12.5068 25.2423 14.0625C25.2423 15.6182 24.0382 16.875 22.544 16.875Z" fill="#FD562A"/>
</svg>
