<svg width="60" height="60" viewBox="0 0 60 60" fill="none" xmlns="http://www.w3.org/2000/svg">
<circle cx="30" cy="30" r="30" fill="#FD562A"/>
<path d="M30 17.5C25.1625 17.5 21.25 21.4125 21.25 26.25C21.25 32.8125 30 42.5 30 42.5C30 42.5 38.75 32.8125 38.75 26.25C38.75 21.4125 34.8375 17.5 30 17.5ZM30 29.375C29.1712 29.375 28.3763 29.0458 27.7903 28.4597C27.2042 27.8737 26.875 27.0788 26.875 26.25C26.875 25.4212 27.2042 24.6263 27.7903 24.0403C28.3763 23.4542 29.1712 23.125 30 23.125C30.8288 23.125 31.6237 23.4542 32.2097 24.0403C32.7958 24.6263 33.125 25.4212 33.125 26.25C33.125 27.0788 32.7958 27.8737 32.2097 28.4597C31.6237 29.0458 30.8288 29.375 30 29.375Z" fill="white"/>
</svg>
