<svg width="60" height="60" viewBox="0 0 60 60" fill="none" xmlns="http://www.w3.org/2000/svg">
<circle cx="30" cy="30" r="30" fill="#FD562A"/>
<path d="M23.275 27.4875C25.075 31.025 27.975 33.9125 31.5125 35.725L34.2625 32.975C34.6 32.6375 35.1 32.525 35.5375 32.675C36.9375 33.1375 38.45 33.3875 40 33.3875C40.6875 33.3875 41.25 33.95 41.25 34.6375V39C41.25 39.6875 40.6875 40.25 40 40.25C28.2625 40.25 18.75 30.7375 18.75 19C18.75 18.3125 19.3125 17.75 20 17.75H24.375C25.0625 17.75 25.625 18.3125 25.625 19C25.625 20.5625 25.875 22.0625 26.3375 23.4625C26.475 23.9 26.375 24.3875 26.025 24.7375L23.275 27.4875Z" fill="white"/>
</svg>
