<svg width="40" height="40" viewBox="0 0 40 40" fill="none" xmlns="http://www.w3.org/2000/svg">
<path d="M33.3333 5C34.2533 5 35 5.74667 35 6.66667V9.595L31.6667 12.9283V8.33333H8.33333V21.8333L15 15.1667L22.2133 22.3817L20.0017 24.5933L19.9917 31.6583L27.0683 31.6683L29.285 29.4517L31.4983 31.6667H31.6667V27.07L35 23.7367V33.3333C35 34.2533 34.2533 35 33.3333 35H6.66667C5.74667 35 5 34.2533 5 33.3333V6.66667C5 5.74667 5.74667 5 6.66667 5H33.3333ZM36.2967 13.0133L38.6533 15.37L25.69 28.3333L23.33 28.33L23.3333 25.9767L36.2967 13.0133ZM25.8333 11.6667C27.2133 11.6667 28.3333 12.7867 28.3333 14.1667C28.3333 15.5467 27.2133 16.6667 25.8333 16.6667C24.4533 16.6667 23.3333 15.5467 23.3333 14.1667C23.3333 12.7867 24.4533 11.6667 25.8333 11.6667Z" fill="#FD562A"/>
</svg>
