<svg width="40" height="40" viewBox="0 0 40 40" fill="none" xmlns="http://www.w3.org/2000/svg">
<path d="M8.33333 13.3333V33.3333H31.6667V13.3333H8.33333ZM8.33333 9.99992H31.6667V6.66659H8.33333V9.99992ZM33.3333 36.6666H6.66667C6.22464 36.6666 5.80072 36.491 5.48816 36.1784C5.17559 35.8659 5 35.4419 5 34.9999V4.99992C5 4.55789 5.17559 4.13397 5.48816 3.82141C5.80072 3.50885 6.22464 3.33325 6.66667 3.33325H33.3333C33.7754 3.33325 34.1993 3.50885 34.5118 3.82141C34.8244 4.13397 35 4.55789 35 4.99992V34.9999C35 35.4419 34.8244 35.8659 34.5118 36.1784C34.1993 36.491 33.7754 36.6666 33.3333 36.6666ZM11.6667 16.6666H18.3333V23.3333H11.6667V16.6666ZM11.6667 26.6666H28.3333V29.9999H11.6667V26.6666ZM21.6667 18.3333H28.3333V21.6666H21.6667V18.3333Z" fill="#FD562A"/>
</svg>
