<svg width="60" height="60" viewBox="0 0 60 60" fill="none" xmlns="http://www.w3.org/2000/svg">
<circle cx="30" cy="30" r="30" fill="#FD562A"/>
<path d="M26.25 30C26.25 32.075 27.925 33.75 30 33.75C32.075 33.75 33.75 32.075 33.75 30C33.75 27.925 32.075 26.25 30 26.25C27.925 26.25 26.25 27.925 26.25 30ZM31.25 30C31.25 30.6875 30.6875 31.25 30 31.25C29.3125 31.25 28.75 30.6875 28.75 30C28.75 29.3125 29.3125 28.75 30 28.75C30.6875 28.75 31.25 29.3125 31.25 30Z" fill="white"/>
<path d="M25 27.5V25H21.3625C23.0875 22.0125 26.3125 20 30 20C34.65 20 38.5625 23.2 39.675 27.5H42.25C41.0875 21.8 36.05 17.5 30 17.5C25.9125 17.5 22.275 19.475 20 22.5125V20H17.5V27.5H25ZM35 32.5V35H38.6375C36.9125 37.9875 33.6875 40 30 40C25.35 40 21.4375 36.8 20.325 32.5H17.75C18.9125 38.2 23.95 42.5 30 42.5C34.0875 42.5 37.725 40.525 40 37.4875V40H42.5V32.5H35Z" fill="white"/>
</svg>
