<svg width="60" height="60" viewBox="0 0 60 60" fill="none" xmlns="http://www.w3.org/2000/svg">
<circle cx="30" cy="30" r="30" fill="#FD562A"/>
<path d="M39.3375 23.9953L37.1063 21.7641C36.6124 21.2746 35.9453 21 35.25 21H24.6187C23.925 21 23.2547 21.2766 22.7625 21.7641L20.5312 23.9953H15V35.9813H18C18.825 35.9813 19.4906 35.3156 19.4953 34.4953H19.9219L23.8875 38.0766C25.3359 39.2531 27.3469 39.2813 28.8375 38.2547C29.4234 38.7609 30.0562 39 30.7641 39C31.6172 39 32.4188 38.6531 33.0516 37.875C34.0875 38.2828 35.3109 37.9969 36.0516 37.0875L37.2797 35.5734C37.5422 35.25 37.7063 34.8797 37.7906 34.4953H40.5047C40.5094 35.3156 41.1797 35.9813 42 35.9813H45V23.9953H39.3375ZM17.25 34.4813C16.8375 34.4813 16.5 34.1438 16.5 33.7313C16.5 33.3188 16.8375 32.9813 17.25 32.9813C17.6625 32.9813 18 33.3188 18 33.7313C18 34.1484 17.6625 34.4813 17.25 34.4813ZM35.5312 34.1578L34.3078 35.6672C34.1766 35.8266 33.9422 35.8547 33.7781 35.7234L32.6578 34.8141L31.2516 36.525C30.9703 36.8672 30.5484 36.75 30.4078 36.6375L28.6828 35.1609L27.9516 36.0609C27.3 36.8625 26.1141 36.9844 25.3594 36.3703L20.7984 32.2453H19.5V26.2406H21.4641L24.3563 23.3531C24.45 23.3156 24.5297 23.2828 24.6234 23.2453H27.2812L25.4672 24.9094C24.0891 26.1703 24.0094 28.2984 25.2609 29.6578C25.9547 30.4172 28.1297 31.5891 30.0187 29.8641L30.4031 29.5125L35.475 33.6281C35.6344 33.7594 35.6578 33.9984 35.5312 34.1578ZM40.5 32.2453H37.2562C37.1484 32.1141 37.0266 31.9922 36.8953 31.8844L32.0812 27.975L32.6672 27.4406C32.9719 27.1594 32.9953 26.6859 32.7141 26.3813L32.2031 25.8328C31.9219 25.5281 31.4484 25.5094 31.1437 25.7859L28.5563 28.1578C28.1109 28.5656 27.3516 28.5984 26.9344 28.1578C26.4984 27.6937 26.5359 26.9813 26.9906 26.5688L30.0656 23.7516C30.4125 23.4328 30.8625 23.2594 31.3312 23.2594L35.2547 23.25C35.3531 23.25 35.4469 23.2875 35.5125 23.3578L38.4047 26.2453H40.5V32.2453ZM42.75 34.4813C42.3375 34.4813 42 34.1438 42 33.7313C42 33.3188 42.3375 32.9813 42.75 32.9813C43.1625 32.9813 43.5 33.3188 43.5 33.7313C43.5 34.1484 43.1625 34.4813 42.75 34.4813Z" fill="white"/>
</svg>
